<svg width="120" height="120" viewBox="0 0 120 120" fill="none" xmlns="http://www.w3.org/2000/svg">
<g clip-path="url(#clip0_89_799)">
<path fill-rule="evenodd" clip-rule="evenodd" d="M60 120C75.913 120 91.1742 113.679 102.426 102.426C113.679 91.1742 120 75.913 120 60C120 44.087 113.679 28.8258 102.426 17.5736C91.1742 6.32141 75.913 0 60 0C44.087 0 28.8258 6.32141 17.5736 17.5736C6.32141 28.8258 0 44.087 0 60C0 75.913 6.32141 91.1742 17.5736 102.426C28.8258 113.679 44.087 120 60 120ZM50.3025 39.6975C48.888 38.3313 46.9935 37.5754 45.027 37.5924C43.0605 37.6095 41.1794 38.3983 39.7889 39.7889C38.3983 41.1794 37.6095 43.0605 37.5924 45.027C37.5754 46.9935 38.3313 48.888 39.6975 50.3025L49.395 60L39.6975 69.6975C38.9812 70.3894 38.4098 71.2169 38.0167 72.132C37.6237 73.047 37.4168 74.0312 37.4081 75.027C37.3995 76.0228 37.5892 77.0104 37.9663 77.9322C38.3434 78.8539 38.9003 79.6913 39.6045 80.3955C40.3087 81.0997 41.1461 81.6566 42.0678 82.0337C42.9896 82.4108 43.9772 82.6005 44.973 82.5919C45.9689 82.5832 46.953 82.3763 47.868 81.9833C48.7831 81.5902 49.6106 81.0188 50.3025 80.3025L60 70.605L69.6975 80.3025C71.112 81.6687 73.0065 82.4246 74.973 82.4076C76.9395 82.3905 78.8206 81.6017 80.2111 80.2111C81.6017 78.8206 82.3905 76.9395 82.4076 74.973C82.4246 73.0065 81.6687 71.112 80.3025 69.6975L70.605 60L80.3025 50.3025C81.6687 48.888 82.4246 46.9935 82.4076 45.027C82.3905 43.0605 81.6017 41.1794 80.2111 39.7889C78.8206 38.3983 76.9395 37.6095 74.973 37.5924C73.0065 37.5754 71.112 38.3313 69.6975 39.6975L60 49.395L50.3025 39.6975Z" fill="#FF3632"/>
</g>
<defs>
<clipPath id="clip0_89_799">
<rect width="120" height="120" fill="white"/>
</clipPath>
</defs>
</svg>
