<svg width="1024" height="1024" viewBox="0 0 1024 1024" fill="none" xmlns="http://www.w3.org/2000/svg">
<g clip-path="url(#clip0_427_792)">
<path d="M24.8244 718.192C32.3096 718.199 39.7948 718.205 47.5067 718.212C56.0652 718.202 64.6237 718.192 73.4415 718.182C87.6516 718.221 87.6516 718.221 102.149 718.262C112.159 718.264 122.169 718.263 132.18 718.259C159.436 718.256 186.692 718.3 213.948 718.351C242.403 718.397 270.857 718.401 299.312 718.41C353.23 718.433 407.149 718.494 461.068 718.567C522.437 718.65 583.806 718.69 645.176 718.727C771.451 718.804 897.725 718.934 1024 719.098C1021.7 736.582 1021.7 736.582 1016.64 755.907C991.785 772.476 983.574 772.467 954.495 772.451C942.014 772.498 942.014 772.498 929.282 772.545C920.148 772.504 911.014 772.462 901.604 772.42C891.991 772.434 882.378 772.448 872.473 772.462C846.099 772.498 819.726 772.441 793.352 772.367C765.786 772.302 738.219 772.315 710.652 772.318C664.372 772.311 618.092 772.247 571.812 772.146C518.238 772.03 464.664 771.992 411.09 771.997C359.616 772.002 308.142 771.964 256.668 771.903C234.729 771.877 212.79 771.864 190.851 771.86C160.266 771.851 129.681 771.779 99.095 771.701C85.35 771.706 85.35 771.706 71.3273 771.711C58.9092 771.664 58.9092 771.664 46.2402 771.616C39.0009 771.603 31.7615 771.591 24.3028 771.578C8.05212 770.631 8.05212 770.631 0.690182 763.269C-0.230061 744.864 -0.230061 744.864 0.690182 726.46C8.05212 719.098 8.05212 719.098 24.8244 718.192Z" fill="#006CFE"/>
<path d="M0.689941 726.46C178.039 726.46 355.388 726.46 538.112 726.46C538.112 736.178 538.112 745.895 538.112 755.908C530.75 763.27 530.75 763.27 509.741 764.155C500.341 764.139 490.941 764.122 481.256 764.105C476.085 764.107 470.914 764.108 465.586 764.109C448.417 764.104 431.249 764.046 414.08 763.989C402.207 763.975 390.333 763.964 378.46 763.957C347.149 763.929 315.839 763.857 284.529 763.775C252.602 763.7 220.676 763.666 188.75 763.629C126.063 763.55 63.3767 763.424 0.689941 763.27C0.689941 751.122 0.689941 738.975 0.689941 726.46Z" fill="#006CFE"/>
<path d="M615.884 189.924C637.97 204.647 637.97 204.647 652.694 226.733C655.589 249.181 654.898 270.505 652.694 292.991C661.956 294.509 671.218 296.028 680.761 297.592C769.261 317.598 843.58 374.947 894.257 448.972C941.75 529.157 947.171 595.136 947.171 690.536C701.798 690.536 456.424 690.536 203.615 690.536C184.254 613.089 207.499 541.93 243.013 472.237C297.972 384.885 378.022 323.933 476.007 292.991C483.295 292.991 490.584 292.991 498.093 292.991C497.637 285.247 497.182 277.503 496.713 269.525C498.188 239.532 501.581 227.734 520.179 204.647C550.208 178.908 579.137 178.07 615.884 189.924Z" fill="#006CFE"/>
<path d="M-204.502 450C-193.408 450.027 -193.408 450.027 -182.091 450.055C-173.739 450.056 -165.388 450.056 -156.784 450.057C-147.602 450.099 -138.421 450.142 -129.239 450.185C-119.896 450.201 -110.553 450.212 -101.21 450.221C-76.5772 450.252 -51.9445 450.333 -27.3116 450.423C-2.19238 450.507 22.9269 450.545 48.0461 450.586C97.3642 450.674 146.682 450.814 196 450.986C191.486 464.521 186.973 478.055 182.323 492C46.9161 492 -88.4903 492 -228 492C-228 451.391 -228 451.391 -204.502 450Z" fill="#006CFE"/>
<path d="M45.8286 335C122.445 335 199.062 335 278 335C250.686 369.126 250.686 369.126 228.153 373C219.427 372.821 210.702 372.643 201.712 372.458C197.052 372.41 192.392 372.362 187.591 372.312C172.765 372.122 157.957 371.694 143.136 371.259C133.062 371.087 122.988 370.932 112.914 370.792C88.2702 370.417 63.6368 369.828 39 369.126C41.2534 357.864 43.5069 346.603 45.8286 335Z" fill="#006CFE"/>
<path d="M-9.16 574C45.0128 574 99.1856 574 155 574C155 589.51 155 605.02 155 621C98.57 621 42.14 621 -16 621C-13.7428 605.49 -11.4856 589.98 -9.16 574Z" fill="#006CFE"/>
</g>
<defs>
<clipPath id="clip0_427_792">
<rect width="1024" height="1024" rx="150" fill="white"/>
</clipPath>
</defs>
</svg>
