<svg width="40" height="40" viewBox="0 0 40 40" fill="none" xmlns="http://www.w3.org/2000/svg">
<g clip-path="url(#clip0_219_672)">
<rect width="40" height="40" rx="8" fill="white"/>
<path d="M32.5 0H7.5C5.51155 0.00220571 3.60518 0.79309 2.19914 2.19914C0.79309 3.60518 0.00220571 5.51155 0 7.5L0 32.5C0.00220571 34.4884 0.79309 36.3948 2.19914 37.8009C3.60518 39.2069 5.51155 39.9978 7.5 40H32.5C34.4884 39.9978 36.3948 39.2069 37.8009 37.8009C39.2069 36.3948 39.9978 34.4884 40 32.5V7.5C39.9978 5.51155 39.2069 3.60518 37.8009 2.19914C36.3948 0.79309 34.4884 0.00220571 32.5 0ZM7.5 5H32.5C33.163 5 33.7989 5.26339 34.2678 5.73223C34.7366 6.20107 35 6.83696 35 7.5V32.5C35.0004 32.8283 34.9359 33.1534 34.81 33.4567C34.6841 33.7599 34.4995 34.0352 34.2667 34.2667L19.7133 19.7133C18.4631 18.4635 16.7678 17.7614 15 17.7614C13.2322 17.7614 11.5369 18.4635 10.2867 19.7133L5 25V7.5C5 6.83696 5.26339 6.20107 5.73223 5.73223C6.20107 5.26339 6.83696 5 7.5 5Z" fill="#E1E1E1"/>
<path d="M28 16C30.2091 16 32 14.2091 32 12C32 9.79086 30.2091 8 28 8C25.7909 8 24 9.79086 24 12C24 14.2091 25.7909 16 28 16Z" fill="#E1E1E1"/>
</g>
<defs>
<clipPath id="clip0_219_672">
<rect width="40" height="40" rx="8" fill="white"/>
</clipPath>
</defs>
</svg>
