<svg width="20" height="20" viewBox="0 0 20 20" fill="none" xmlns="http://www.w3.org/2000/svg">
<rect width="20" height="20" rx="10" fill="#1263F0"/>
<path fill-rule="evenodd" clip-rule="evenodd" d="M10 6C10.2122 6 10.4157 6.08429 10.5657 6.23431C10.7157 6.38434 10.8 6.58783 10.8 6.8V9.2H13.2C13.4122 9.2 13.6157 9.28429 13.7657 9.43431C13.9157 9.58434 14 9.78783 14 10C14 10.2122 13.9157 10.4157 13.7657 10.5657C13.6157 10.7157 13.4122 10.8 13.2 10.8H10.8V13.2C10.8 13.4122 10.7157 13.6157 10.5657 13.7657C10.4157 13.9157 10.2122 14 10 14C9.78783 14 9.58434 13.9157 9.43431 13.7657C9.28429 13.6157 9.2 13.4122 9.2 13.2V10.8H6.8C6.58783 10.8 6.38434 10.7157 6.23431 10.5657C6.08429 10.4157 6 10.2122 6 10C6 9.78783 6.08429 9.58434 6.23431 9.43431C6.38434 9.28429 6.58783 9.2 6.8 9.2H9.2V6.8C9.2 6.58783 9.28429 6.38434 9.43431 6.23431C9.58434 6.08429 9.78783 6 10 6Z" fill="white"/>
</svg>
