<svg width="582" height="607" viewBox="0 0 582 607" fill="none" xmlns="http://www.w3.org/2000/svg">
<path d="M426.365 437.091C424.042 437.091 421.761 436.467 419.762 435.284C417.762 434.102 416.117 432.404 414.997 430.368L400.383 403.91C399.265 401.882 398.709 399.592 398.773 397.276C398.837 394.961 399.518 392.705 400.746 390.741C401.974 388.778 403.704 387.178 405.758 386.107C407.812 385.036 410.114 384.534 412.427 384.651L438.957 386.007C441.393 386.143 443.742 386.957 445.74 388.356C447.739 389.755 449.306 391.685 450.267 393.927L458.014 412.249C458.708 413.89 459.057 415.656 459.039 417.437C459.022 419.219 458.639 420.978 457.914 422.605C457.189 424.232 456.137 425.693 454.824 426.897C453.511 428.101 451.965 429.022 450.281 429.604L430.632 436.384C429.264 436.862 427.825 437.106 426.376 437.105L426.365 437.091Z" fill="#090814"/>
<path d="M468.276 596.324L485.52 592.602L479.344 524.362L453.919 529.854L468.276 596.324Z" fill="#E2CCB2"/>
<path d="M527.242 583.185C527.98 583.971 528.894 586.826 529.119 587.885C529.287 588.653 529.301 589.446 529.161 590.22C529.021 590.993 528.729 591.731 528.303 592.392C527.876 593.052 527.324 593.621 526.676 594.068C526.029 594.514 525.3 594.827 524.531 594.991L471.162 606.525C470.103 606.751 468.998 606.549 468.087 605.963C467.176 605.377 466.534 604.454 466.301 603.397L465.82 601.167C465.82 601.167 461.729 595.055 465.387 585.655C465.387 585.655 473.536 590.644 481.444 578.355L483.257 572.324L508.217 583.424L520.472 582.317C523.151 582.076 525.397 581.194 527.225 583.183H527.241L527.242 583.185Z" fill="#090814"/>
<path d="M499.107 591.11L513.48 580.91L480.964 520.595L459.742 535.639L499.107 591.11Z" fill="#E2CCB2"/>
<path d="M548.146 555.819C549.53 556.798 550.734 558.008 551.707 559.396C552.626 560.689 552.993 562.294 552.728 563.858C552.463 565.423 551.588 566.817 550.295 567.737L505.765 599.337C504.881 599.96 503.787 600.209 502.72 600.029C501.653 599.848 500.701 599.254 500.07 598.375L498.755 596.514C498.755 596.514 492.595 592.504 492.255 582.414C492.255 582.414 501.703 583.794 504.155 569.388L503.449 563.132L530.767 563.517L541.611 557.678C543.985 556.395 545.701 554.71 548.156 555.817L548.146 555.819Z" fill="#090814"/>
<path d="M311.011 281.991C311.011 281.991 286.904 314.768 335.118 351.628L433.579 320.164L398.407 246.821L367.262 229.74L310.999 281.978L311.011 281.991Z" fill="#090814"/>
<path d="M433.593 320.18L471.765 394.52L495.886 549.258L465.749 551.263L435.6 404.574L382.35 325.2L419.527 308.119" fill="#090814"/>
<path d="M335.132 328.287V351.643L403.456 426.675C403.456 426.675 403.456 482.938 429.582 509.065L459.719 555.287L485.845 541.225L447.673 406.594L379.349 318.174L335.149 328.287H335.135H335.132Z" fill="#090814"/>
<path d="M383.677 96.7567L370.804 145.821L321.74 136.17C321.74 136.17 355.974 100.87 351.156 84.7827L383.688 96.7567H383.674H383.677Z" fill="#E2CCB2"/>
<path d="M346.182 104.159L376.32 118.225C376.32 118.225 391.828 127.703 392.12 134.025C392.412 140.347 390.389 170.481 390.389 170.481C390.389 170.481 402.449 182.542 394.414 206.648L398.439 246.84L308.01 295.059L316.047 210.664L312.022 132.299L346.184 104.167L346.182 104.159Z" fill="#006CFE"/>
<path d="M319.134 332.846C322.668 340.939 329.708 345.686 334.858 343.435C340.008 341.184 341.322 332.803 337.802 324.709C336.437 321.453 334.311 318.572 331.602 316.309L316.208 282.19L300.354 289.749L317.201 322.586C317.014 326.11 317.677 329.628 319.134 332.843V332.846Z" fill="#E2CCB2"/>
<path d="M335.132 137.324C335.132 137.324 313.032 123.258 304.995 139.329C296.958 155.4 278.869 237.787 278.869 237.787L304.995 316.152L329.102 306.111L307.996 221.777L335.118 137.324H335.132Z" fill="#006CFE"/>
<path d="M448.424 320.195C454.685 326.427 462.98 328.245 466.948 324.249C470.916 320.253 469.04 311.987 462.779 305.754C460.309 303.232 457.272 301.338 453.921 300.229L427.044 274.174L415.083 287.042L442.844 311.351C443.971 314.698 445.885 317.726 448.427 320.18L448.424 320.195Z" fill="#E2CCB2"/>
<path d="M391.265 132.52C391.265 132.52 352.732 130.95 351.174 148.85C349.616 166.75 375.974 246.65 375.974 246.65L429.136 309.881L447.847 291.66L397.167 221.028L391.28 132.52H391.265Z" fill="#006CFE"/>
<path d="M404.624 70.5299C404.624 77.1524 402.66 83.6262 398.981 89.1326C395.302 94.639 390.072 98.9308 383.954 101.465C377.836 103.999 371.103 104.663 364.608 103.371C358.113 102.079 352.146 98.8895 347.464 94.2067C342.781 89.5238 339.592 83.5576 338.3 77.0623C337.008 70.567 337.671 63.8345 340.205 57.7161C342.739 51.5977 347.031 46.3682 352.538 42.689C358.044 39.0097 364.518 37.0459 371.14 37.0459C375.538 37.0455 379.892 37.9113 383.954 39.5939C388.017 41.2765 391.709 43.7429 394.818 46.8523C397.927 49.9616 400.394 53.653 402.076 57.7157C403.759 61.7783 404.625 66.1326 404.624 70.5299Z" fill="#E2CCB2"/>
<path d="M368.471 25.5189C369.438 26.0819 370.736 25.2299 371.053 24.1479C371.251 23.0362 371.112 21.8909 370.653 20.8589C370.047 19.0699 369.453 17.2959 368.853 15.5069C367.569 11.7129 366.213 7.78894 363.443 4.90694C359.253 0.546936 352.588 -0.564064 346.601 0.243936C338.912 1.28294 331.323 5.43794 327.746 12.3329C324.169 19.2279 325.697 28.8329 332.161 33.1329C322.942 43.6929 319.74 55.4649 320.245 69.4589C320.75 83.4529 336.013 96.3499 345.967 106.218C348.189 104.876 350.208 98.5579 348.982 96.2639C347.756 93.9699 349.516 91.3159 348.001 89.1949C346.486 87.0739 345.217 90.4499 346.746 88.3439C347.713 87.0169 343.946 83.9729 345.375 83.1789C352.314 79.3419 354.622 70.6859 358.975 64.0639C361.642 60.0743 365.157 56.7235 369.269 54.2514C373.382 51.7792 377.99 50.2468 382.764 49.7639C388.015 49.2729 393.555 50.1639 397.854 53.2119C402.153 56.2599 404.937 61.6949 403.942 66.8739C405.241 65.5573 406.222 63.9612 406.809 62.2075C407.397 60.4538 407.576 58.589 407.332 56.7557C407.088 54.9224 406.429 53.169 405.404 51.6297C404.379 50.0903 403.015 48.8056 401.417 47.8739C402.351 44.6593 402.455 41.2604 401.719 37.9948C400.983 34.7292 399.432 31.7033 397.209 29.1999C392.722 24.2519 374.531 25.0999 367.981 26.3999L368.481 25.5339L368.467 25.5199L368.471 25.5189Z" fill="#090814"/>
<path d="M367.463 49.9581C358.793 50.8961 352.532 58.4121 347.237 65.3511C344.193 69.3511 340.99 73.7621 341.077 78.7961C341.149 83.8741 344.554 88.2451 346.184 93.0491C347.451 97.0213 347.535 101.276 346.425 105.295C345.316 109.315 343.062 112.924 339.937 115.684C343.085 116.16 346.296 115.414 348.912 113.598C351.527 111.782 353.349 109.033 354.003 105.917C355.258 98.6321 349.733 91.5921 350.382 84.2171C350.959 77.7251 356.082 72.7341 360.423 67.8721C364.764 63.0101 368.862 56.5721 366.857 50.3721L367.463 49.9541V49.9581Z" fill="#090814"/>
<path d="M582 605C582 605.131 581.967 605.261 581.901 605.383C581.835 605.504 581.738 605.615 581.615 605.708C581.493 605.801 581.347 605.874 581.187 605.924C581.027 605.974 580.855 606 580.682 606H2.34968C2.17399 606.003 1.99923 605.979 1.83567 605.931C1.67211 605.882 1.52307 605.809 1.39731 605.716C1.27155 605.622 1.17162 605.511 1.10338 605.388C1.03515 605.265 1 605.133 1 605C1 604.867 1.03515 604.735 1.10338 604.612C1.17162 604.489 1.27155 604.378 1.39731 604.284C1.52307 604.191 1.67211 604.118 1.83567 604.069C1.99923 604.021 2.17399 603.997 2.34968 604H580.685C580.858 604 581.029 604.026 581.189 604.076C581.349 604.126 581.494 604.2 581.616 604.293C581.738 604.386 581.835 604.496 581.901 604.617C581.967 604.739 582 604.869 582 605Z" fill="#F2F2F2"/>
<path d="M268.592 295.742H46.9334C34.8626 295.742 23.2862 300.537 14.7509 309.073C6.21552 317.608 1.42041 329.184 1.42041 341.255V556.194C1.42041 562.171 2.59764 568.089 4.88488 573.611C7.17212 579.133 10.5246 584.15 14.7509 588.377C18.9771 592.603 23.9945 595.955 29.5163 598.243C35.0382 600.53 40.9566 601.707 46.9334 601.707H268.592C280.663 601.707 292.24 596.912 300.775 588.377C309.31 579.841 314.105 568.265 314.105 556.194V341.255C314.105 329.184 309.31 317.608 300.775 309.073C292.24 300.537 280.663 295.742 268.592 295.742Z" fill="white"/>
<path d="M268.92 603.183H47.2614C34.909 603.169 23.0666 598.256 14.3321 589.521C5.59762 580.787 0.684438 568.944 0.67041 556.592V341.654C0.684438 329.302 5.59762 317.459 14.3321 308.725C23.0666 299.99 34.909 295.077 47.2614 295.063H268.921C281.274 295.077 293.116 299.99 301.851 308.725C310.585 317.459 315.498 329.302 315.512 341.654V556.592C315.498 568.945 310.585 580.787 301.85 589.522C293.116 598.256 281.273 603.169 268.92 603.183ZM47.2614 297.219C35.4803 297.232 24.1855 301.918 15.855 310.249C7.52453 318.579 2.83864 329.874 2.82541 341.655V556.592C2.83864 568.373 7.52456 579.668 15.8551 587.998C24.1856 596.328 35.4804 601.014 47.2614 601.027H268.921C280.702 601.014 291.997 596.328 300.328 587.998C308.658 579.668 313.344 568.373 313.357 556.592V341.654C313.344 329.873 308.658 318.578 300.328 310.248C291.997 301.917 280.702 297.231 268.921 297.218L47.2614 297.219Z" fill="#090814"/>
<path d="M47.7394 317.285C50.5781 317.285 52.8794 314.984 52.8794 312.145C52.8794 309.306 50.5781 307.005 47.7394 307.005C44.9006 307.005 42.5994 309.306 42.5994 312.145C42.5994 314.984 44.9006 317.285 47.7394 317.285Z" fill="#3F3D56"/>
<path d="M61.8754 317.285C64.7141 317.285 67.0154 314.984 67.0154 312.145C67.0154 309.306 64.7141 307.005 61.8754 307.005C59.0366 307.005 56.7354 309.306 56.7354 312.145C56.7354 314.984 59.0366 317.285 61.8754 317.285Z" fill="#3F3D56"/>
<path d="M76.0094 317.285C78.8481 317.285 81.1494 314.984 81.1494 312.145C81.1494 309.306 78.8481 307.005 76.0094 307.005C73.1706 307.005 70.8694 309.306 70.8694 312.145C70.8694 314.984 73.1706 317.285 76.0094 317.285Z" fill="#3F3D56"/>
<path d="M266.771 556.89H63.4515C61.5385 556.89 59.7039 556.13 58.3512 554.777C56.9985 553.425 56.2385 551.59 56.2385 549.677C56.2385 547.764 56.9985 545.929 58.3512 544.577C59.7039 543.224 61.5385 542.464 63.4515 542.464H266.771C268.684 542.464 270.519 543.224 271.872 544.577C273.225 545.929 273.984 547.764 273.984 549.677C273.984 551.59 273.225 553.425 271.872 554.777C270.519 556.13 268.684 556.89 266.771 556.89Z" fill="#E6E6E6"/>
<path d="M195.649 556.862H48.4575C45.2205 556.862 42.5955 553.633 42.5955 549.649C42.5955 545.665 45.2195 542.436 48.4575 542.436H195.649C198.886 542.436 201.511 545.665 201.511 549.649C201.511 553.633 198.887 556.862 195.649 556.862Z" fill="#006CFE"/>
<path d="M158.105 498.358C149.579 498.356 141.316 495.406 134.716 490.008C128.117 484.61 123.587 477.096 121.894 468.739C120.201 460.383 121.45 451.698 125.428 444.157C129.407 436.616 135.87 430.683 143.723 427.363C148.273 425.439 153.165 424.452 158.105 424.463C158.584 424.455 159.059 424.542 159.504 424.72C159.949 424.898 160.353 425.162 160.695 425.498C161.036 425.833 161.307 426.234 161.492 426.675C161.677 427.117 161.772 427.591 161.772 428.069C161.772 428.548 161.677 429.022 161.492 429.464C161.307 429.905 161.036 430.305 160.695 430.641C160.353 430.977 159.949 431.241 159.504 431.419C159.059 431.596 158.584 431.684 158.105 431.676C151.246 431.681 144.599 434.057 139.291 438.401C133.982 442.746 130.339 448.792 128.977 455.514C127.615 462.237 128.619 469.224 131.819 475.292C135.018 481.36 140.216 486.135 146.533 488.809C151.055 490.722 155.979 491.485 160.868 491.031C165.756 490.577 170.456 488.918 174.547 486.205C178.638 483.491 181.993 479.806 184.313 475.479C186.633 471.152 187.845 466.318 187.84 461.409C187.832 460.93 187.92 460.455 188.097 460.01C188.275 459.566 188.539 459.161 188.875 458.82C189.211 458.478 189.611 458.207 190.053 458.022C190.494 457.837 190.968 457.742 191.447 457.742C191.926 457.742 192.399 457.837 192.841 458.022C193.283 458.207 193.683 458.478 194.018 458.82C194.354 459.161 194.619 459.566 194.796 460.01C194.974 460.455 195.061 460.93 195.053 461.409C195.057 466.262 194.104 471.068 192.249 475.553C190.393 480.037 187.672 484.112 184.24 487.544C180.808 490.976 176.734 493.697 172.249 495.553C167.765 497.408 162.959 498.362 158.105 498.358Z" fill="black"/>
<path d="M158.106 440.977C159.406 440.962 160.672 441.392 161.694 442.196C162.716 442.999 163.433 444.128 163.725 445.395C163.779 445.618 163.885 445.825 164.034 445.999C164.183 446.173 164.371 446.309 164.583 446.397C164.794 446.485 165.024 446.521 165.252 446.503C165.481 446.486 165.702 446.414 165.897 446.295C166.562 445.881 167.305 445.607 168.079 445.49C168.854 445.374 169.644 445.417 170.401 445.618C171.159 445.819 171.867 446.173 172.482 446.658C173.097 447.143 173.606 447.749 173.978 448.438C174.48 449.327 174.732 450.335 174.709 451.356C174.686 452.377 174.388 453.372 173.847 454.238C173.728 454.434 173.657 454.654 173.639 454.883C173.622 455.111 173.658 455.34 173.746 455.552C173.834 455.764 173.97 455.951 174.144 456.1C174.318 456.249 174.525 456.355 174.747 456.409C176.007 456.715 177.128 457.435 177.929 458.454C178.73 459.473 179.166 460.732 179.166 462.028C179.166 463.324 178.73 464.583 177.929 465.602C177.128 466.621 176.007 467.341 174.747 467.647C174.525 467.701 174.318 467.807 174.144 467.956C173.969 468.104 173.833 468.292 173.745 468.504C173.658 468.716 173.621 468.945 173.639 469.174C173.657 469.402 173.728 469.623 173.847 469.819C174.389 470.685 174.686 471.68 174.71 472.701C174.733 473.721 174.481 474.73 173.979 475.619C173.607 476.308 173.098 476.914 172.483 477.399C171.868 477.884 171.16 478.238 170.403 478.439C169.646 478.64 168.856 478.684 168.081 478.568C167.307 478.452 166.564 478.178 165.899 477.764C165.704 477.645 165.483 477.574 165.254 477.556C165.026 477.538 164.797 477.575 164.585 477.662C164.374 477.75 164.186 477.887 164.037 478.061C163.888 478.235 163.782 478.441 163.728 478.664C163.423 479.924 162.703 481.044 161.684 481.846C160.664 482.647 159.406 483.083 158.109 483.083C156.813 483.083 155.554 482.647 154.535 481.846C153.516 481.044 152.796 479.924 152.49 478.664C152.436 478.441 152.331 478.234 152.182 478.06C152.033 477.886 151.845 477.75 151.633 477.662C151.421 477.574 151.192 477.538 150.963 477.555C150.735 477.573 150.514 477.645 150.318 477.764C149.654 478.178 148.911 478.452 148.136 478.569C147.362 478.685 146.571 478.641 145.814 478.441C145.057 478.24 144.349 477.886 143.734 477.401C143.119 476.916 142.609 476.31 142.237 475.621C141.736 474.732 141.484 473.724 141.507 472.703C141.53 471.682 141.827 470.687 142.368 469.821C142.487 469.625 142.559 469.404 142.576 469.176C142.594 468.948 142.558 468.718 142.47 468.507C142.382 468.295 142.246 468.107 142.072 467.958C141.898 467.81 141.691 467.704 141.468 467.65C140.209 467.344 139.088 466.624 138.287 465.605C137.485 464.586 137.05 463.327 137.05 462.031C137.05 460.735 137.485 459.476 138.287 458.457C139.088 457.438 140.209 456.718 141.468 456.412C141.691 456.358 141.898 456.252 142.072 456.103C142.246 455.954 142.383 455.766 142.47 455.555C142.558 455.343 142.595 455.114 142.577 454.885C142.559 454.657 142.488 454.436 142.368 454.24C141.827 453.374 141.529 452.379 141.506 451.358C141.483 450.337 141.735 449.329 142.236 448.44C142.608 447.75 143.117 447.144 143.732 446.659C144.347 446.174 145.055 445.82 145.812 445.619C146.569 445.418 147.359 445.374 148.134 445.49C148.909 445.606 149.651 445.88 150.316 446.294C150.543 446.435 150.805 446.509 151.071 446.51C151.398 446.51 151.716 446.4 151.972 446.198C152.229 445.995 152.411 445.713 152.487 445.395C152.78 444.128 153.496 442.999 154.518 442.196C155.54 441.392 156.806 440.962 158.106 440.977ZM165.139 450.836C163.843 450.836 162.583 450.4 161.564 449.598C160.545 448.796 159.825 447.675 159.519 446.415C159.442 446.098 159.261 445.816 159.005 445.615C158.749 445.413 158.432 445.304 158.106 445.304C157.78 445.304 157.464 445.413 157.208 445.615C156.951 445.816 156.77 446.098 156.693 446.415C156.48 447.3 156.06 448.121 155.468 448.813C154.877 449.505 154.13 450.047 153.289 450.395C152.448 450.744 151.537 450.889 150.63 450.818C149.722 450.747 148.844 450.463 148.067 449.989C147.838 449.84 147.571 449.758 147.297 449.752C147.032 449.764 146.774 449.843 146.549 449.984C146.323 450.124 146.137 450.319 146.009 450.552C145.882 450.771 145.819 451.022 145.829 451.276C145.838 451.53 145.92 451.775 146.064 451.984C146.538 452.761 146.822 453.64 146.892 454.547C146.962 455.455 146.817 456.366 146.469 457.207C146.12 458.048 145.578 458.795 144.886 459.387C144.195 459.979 143.373 460.4 142.488 460.614C142.172 460.691 141.89 460.872 141.688 461.128C141.487 461.384 141.377 461.701 141.377 462.027C141.377 462.353 141.487 462.669 141.688 462.926C141.89 463.182 142.172 463.363 142.488 463.44C143.374 463.654 144.196 464.075 144.889 464.667C145.581 465.26 146.123 466.008 146.472 466.85C146.82 467.692 146.965 468.604 146.894 469.512C146.822 470.421 146.538 471.299 146.062 472.077C145.918 472.286 145.837 472.532 145.827 472.786C145.817 473.039 145.88 473.291 146.008 473.51C146.136 473.742 146.322 473.938 146.547 474.078C146.773 474.218 147.03 474.298 147.295 474.31C147.568 474.304 147.834 474.222 148.063 474.074C148.841 473.6 149.719 473.317 150.627 473.246C151.534 473.176 152.446 473.321 153.287 473.67C154.128 474.018 154.875 474.56 155.467 475.252C156.059 475.944 156.479 476.765 156.693 477.65C156.77 477.967 156.951 478.249 157.208 478.45C157.464 478.652 157.78 478.761 158.106 478.761C158.432 478.761 158.749 478.652 159.005 478.45C159.261 478.249 159.442 477.967 159.519 477.65C159.734 476.765 160.155 475.944 160.747 475.252C161.339 474.561 162.086 474.019 162.927 473.671C163.768 473.323 164.68 473.178 165.587 473.249C166.495 473.319 167.373 473.603 168.15 474.077C168.38 474.225 168.645 474.307 168.918 474.313C169.183 474.301 169.441 474.221 169.666 474.081C169.892 473.941 170.077 473.745 170.205 473.513C170.334 473.293 170.397 473.041 170.387 472.787C170.378 472.532 170.295 472.286 170.15 472.077C169.677 471.3 169.393 470.421 169.323 469.514C169.252 468.606 169.397 467.695 169.746 466.853C170.094 466.012 170.637 465.266 171.328 464.674C172.02 464.082 172.842 463.661 173.726 463.447C174.043 463.37 174.325 463.189 174.526 462.933C174.728 462.676 174.837 462.36 174.837 462.034C174.837 461.708 174.728 461.391 174.526 461.135C174.325 460.879 174.043 460.698 173.726 460.621C172.842 460.406 172.021 459.986 171.329 459.394C170.638 458.803 170.096 458.056 169.747 457.215C169.399 456.374 169.254 455.463 169.324 454.556C169.394 453.648 169.677 452.77 170.15 451.993C170.295 451.784 170.376 451.538 170.386 451.284C170.395 451.031 170.332 450.779 170.204 450.56C170.076 450.327 169.891 450.132 169.665 449.992C169.44 449.852 169.182 449.772 168.917 449.76C168.644 449.766 168.379 449.848 168.149 449.996C167.242 450.547 166.2 450.837 165.139 450.836Z" fill="black"/>
<path d="M158.106 470.495C156.433 470.495 154.797 469.999 153.406 469.069C152.014 468.139 150.93 466.818 150.289 465.272C149.649 463.726 149.481 462.024 149.808 460.383C150.134 458.742 150.94 457.234 152.123 456.051C153.307 454.868 154.814 454.062 156.456 453.735C158.097 453.409 159.798 453.576 161.344 454.217C162.89 454.857 164.212 455.942 165.141 457.333C166.071 458.724 166.567 460.36 166.567 462.034C166.565 464.277 165.672 466.427 164.086 468.014C162.5 469.6 160.349 470.492 158.106 470.495ZM153.972 462.034C153.972 462.851 154.215 463.651 154.669 464.33C155.123 465.01 155.769 465.54 156.524 465.853C157.28 466.166 158.111 466.248 158.913 466.088C159.715 465.929 160.451 465.535 161.029 464.957C161.608 464.379 162.001 463.642 162.161 462.84C162.32 462.038 162.238 461.207 161.926 460.452C161.613 459.696 161.083 459.051 160.403 458.596C159.723 458.142 158.924 457.9 158.106 457.9C157.011 457.901 155.96 458.337 155.185 459.112C154.41 459.887 153.975 460.937 153.973 462.033L153.972 462.034Z" fill="black"/>
<path d="M83.0665 347.293H50.2875C49.1763 347.295 48.1113 347.737 47.3256 348.523C46.5399 349.309 46.0976 350.374 46.0955 351.485V389.974C46.0976 391.085 46.5399 392.15 47.3256 392.936C48.1113 393.722 49.1763 394.164 50.2875 394.166H83.0665C84.1776 394.164 85.2426 393.722 86.0283 392.936C86.814 392.15 87.2563 391.085 87.2585 389.974V351.485C87.2563 350.374 86.814 349.309 86.0283 348.523C85.2426 347.737 84.1776 347.295 83.0665 347.293Z" fill="#D6D6E3"/>
<path d="M80.1805 348.5H47.4005C46.6092 348.501 45.8506 348.816 45.291 349.375C44.7314 349.935 44.4166 350.694 44.4155 351.485V389.974C44.4166 390.765 44.7314 391.524 45.291 392.084C45.8506 392.643 46.6092 392.958 47.4005 392.959H80.1795C80.971 392.958 81.7297 392.643 82.2894 392.084C82.849 391.524 83.1637 390.765 83.1645 389.974V351.485C83.1637 350.694 82.8491 349.935 82.2897 349.376C81.7303 348.816 80.9718 348.501 80.1805 348.5Z" fill="#D6D6E3"/>
<path d="M79.5684 344.132H46.7894C45.6783 344.134 44.6133 344.576 43.8276 345.362C43.0419 346.148 42.5995 347.213 42.5974 348.324V386.813C42.5995 387.924 43.0419 388.989 43.8276 389.775C44.6133 390.56 45.6783 391.003 46.7894 391.005H79.5684C80.6796 391.003 81.7446 390.56 82.5303 389.775C83.316 388.989 83.7583 387.924 83.7604 386.813V348.324C83.7583 347.213 83.316 346.148 82.5303 345.362C81.7446 344.576 80.6796 344.134 79.5684 344.132Z" fill="#006CFE"/>
<path d="M79.5675 345.339H46.7875C45.9962 345.34 45.2375 345.655 44.6779 346.214C44.1184 346.774 43.8035 347.533 43.8025 348.324V386.813C43.8035 387.604 44.1184 388.363 44.6779 388.922C45.2375 389.482 45.9962 389.797 46.7875 389.798H79.5665C80.3579 389.797 81.1167 389.482 81.6763 388.923C82.236 388.363 82.5507 387.604 82.5515 386.813V348.324C82.5507 347.533 82.2361 346.774 81.6767 346.214C81.1173 345.655 80.3588 345.34 79.5675 345.339Z" fill="#006CFE"/>
<path d="M214.341 367.432C214.341 368.384 214.227 369.149 214.086 369.149H102.096C101.954 369.149 101.841 368.384 101.841 367.432C101.841 366.48 101.955 365.715 102.096 365.715H214.084C214.226 365.716 214.341 366.48 214.341 367.432Z" fill="#D6D6E3"/>
<path d="M270.161 347.62H237.382C236.271 347.622 235.206 348.065 234.421 348.85C233.635 349.636 233.193 350.701 233.19 351.812V390.301C233.193 391.412 233.635 392.477 234.421 393.263C235.206 394.049 236.271 394.491 237.382 394.493H270.161C271.273 394.491 272.338 394.049 273.123 393.263C273.909 392.477 274.351 391.412 274.353 390.301V351.812C274.351 350.701 273.909 349.636 273.123 348.85C272.338 348.065 271.273 347.622 270.161 347.62Z" fill="#D6D6E3"/>
<path d="M270.161 348.827H237.381C236.589 348.828 235.831 349.143 235.271 349.703C234.711 350.262 234.397 351.021 234.396 351.812V390.301C234.397 391.092 234.711 391.851 235.271 392.411C235.831 392.97 236.589 393.285 237.381 393.286H270.16C270.951 393.285 271.71 392.971 272.269 392.411C272.829 391.851 273.144 391.093 273.145 390.301V351.812C273.144 351.021 272.829 350.262 272.27 349.703C271.71 349.143 270.952 348.828 270.161 348.827Z" fill="#D6D6E3"/>
<path d="M266.328 344.461H233.549C232.438 344.463 231.373 344.905 230.588 345.691C229.802 346.477 229.36 347.542 229.357 348.653V387.142C229.36 388.253 229.802 389.318 230.588 390.104C231.373 390.889 232.438 391.332 233.549 391.334H266.328C267.44 391.332 268.505 390.889 269.29 390.104C270.076 389.318 270.518 388.253 270.52 387.142V348.653C270.518 347.542 270.076 346.477 269.29 345.691C268.505 344.905 267.44 344.463 266.328 344.461Z" fill="#006CFE"/>
<path d="M266.328 345.668H233.548C232.756 345.669 231.998 345.984 231.438 346.543C230.878 347.103 230.564 347.862 230.562 348.653V387.142C230.564 387.933 230.878 388.692 231.438 389.251C231.998 389.811 232.756 390.126 233.548 390.127H266.327C267.118 390.126 267.877 389.811 268.436 389.252C268.996 388.692 269.311 387.933 269.311 387.142V348.653C269.311 347.862 268.996 347.103 268.437 346.543C267.877 345.984 267.119 345.669 266.328 345.668Z" fill="#006CFE"/>
</svg>
