<svg width="40" height="40" viewBox="0 0 40 40" fill="none" xmlns="http://www.w3.org/2000/svg">
<path fill-rule="evenodd" clip-rule="evenodd" d="M38 20C38 24.7739 36.1036 29.3523 32.7279 32.7279C29.3523 36.1036 24.7739 38 20 38C15.2261 38 10.6477 36.1036 7.27208 32.7279C3.89642 29.3523 2 24.7739 2 20C2 15.2261 3.89642 10.6477 7.27208 7.27208C10.6477 3.89642 15.2261 2 20 2C24.7739 2 29.3523 3.89642 32.7279 7.27208C36.1036 10.6477 38 15.2261 38 20ZM24.5 13.25C24.5 14.4435 24.0259 15.5881 23.182 16.432C22.3381 17.2759 21.1935 17.75 20 17.75C18.8065 17.75 17.6619 17.2759 16.818 16.432C15.9741 15.5881 15.5 14.4435 15.5 13.25C15.5 12.0565 15.9741 10.9119 16.818 10.068C17.6619 9.22411 18.8065 8.75 20 8.75C21.1935 8.75 22.3381 9.22411 23.182 10.068C24.0259 10.9119 24.5 12.0565 24.5 13.25ZM20 22.25C17.8459 22.2496 15.7369 22.8676 13.9237 24.0307C12.1105 25.1937 10.6693 26.8529 9.7715 28.811C11.0375 30.2838 12.6071 31.4655 14.3726 32.2748C16.1381 33.0842 18.0578 33.5021 20 33.5C21.9422 33.5021 23.8619 33.0842 25.6274 32.2748C27.3929 31.4655 28.9625 30.2838 30.2285 28.811C29.3307 26.8529 27.8895 25.1937 26.0763 24.0307C24.2631 22.8676 22.1541 22.2496 20 22.25Z" fill="#B6B6B6"/>
</svg>
