<svg width="19" height="19" viewBox="0 0 19 19" fill="none" xmlns="http://www.w3.org/2000/svg">
<path d="M3.95837 5.54165C3.95837 5.12172 4.12519 4.71899 4.42212 4.42206C4.71905 4.12513 5.12178 3.95831 5.54171 3.95831H13.4584C13.8783 3.95831 14.281 4.12513 14.578 4.42206C14.8749 4.71899 15.0417 5.12172 15.0417 5.54165V13.4583C15.0417 13.8782 14.8749 14.281 14.578 14.5779C14.281 14.8748 13.8783 15.0416 13.4584 15.0416H5.54171C5.12178 15.0416 4.71905 14.8748 4.42212 14.5779C4.12519 14.281 3.95837 13.8782 3.95837 13.4583V5.54165Z" fill="#1263F0" stroke="#1263F0" stroke-width="1.5" stroke-linecap="round" stroke-linejoin="round"/>
<path d="M7 10.4L8.71429 12L13 8" stroke="white" stroke-width="1.5" stroke-linecap="round" stroke-linejoin="round"/>
</svg>
